<!-- Sandyland Circle Arrow Logo - Optimized for Loading Spinner -->
<svg width="48" height="48" viewBox="0 0 512 512" xmlns="http://www.w3.org/2000/svg" fill="#19c2dc">
  <!-- Circular arrows - perfect for spinning animation -->
  <path d="M370,90a200,200 0 1,0 70,140" fill="none" stroke="#19c2dc" stroke-width="20" marker-end="url(#arrowhead)" />
  <path d="M140,422a200,200 0 1,0 -70,-140" fill="none" stroke="#19c2dc" stroke-width="20" marker-end="url(#arrowhead)" />

  <defs>
    <marker id="arrowhead" markerWidth="10" markerHeight="10" refX="5" refY="3" orient="auto">
      <polygon points="0 0, 10 3, 0 6" fill="#19c2dc"/>
    </marker>
  </defs>

  <!-- Sun -->
  <circle cx="160" cy="160" r="20" fill="#19c2dc" />
  <g stroke="#19c2dc" stroke-width="4">
    <line x1="160" y1="120" x2="160" y2="100" />
    <line x1="160" y1="200" x2="160" y2="220" />
    <line x1="120" y1="160" x2="100" y2="160" />
    <line x1="200" y1="160" x2="220" y2="160" />
    <line x1="130" y1="130" x2="115" y2="115" />
    <line x1="190" y1="130" x2="205" y2="115" />
    <line x1="130" y1="190" x2="115" y2="205" />
    <line x1="190" y1="190" x2="205" y2="205" />
  </g>

  <!-- Umbrella -->
  <path d="M260 260 Q300 200 360 240 Q300 210 260 260 Z" fill="#19c2dc"/>
  <line x1="310" y1="240" x2="290" y2="320" stroke="#19c2dc" stroke-width="8"/>

  <!-- Sand -->
  <path d="M220 320 Q260 300 340 320 Q300 340 220 320 Z" fill="#19c2dc"/>
</svg>